<?xml version="1.0" encoding="utf-8" standalone="no"?>
<!DOCTYPE svg PUBLIC "-//W3C//DTD SVG 1.1//EN"
  "http://www.w3.org/Graphics/SVG/1.1/DTD/svg11.dtd">
<svg xmlns:xlink="http://www.w3.org/1999/xlink" width="1166.4pt" height="342pt" viewBox="0 0 1166.4 342" xmlns="http://www.w3.org/2000/svg" version="1.1">
 <metadata>
  <rdf:RDF xmlns:dc="http://purl.org/dc/elements/1.1/" xmlns:cc="http://creativecommons.org/ns#" xmlns:rdf="http://www.w3.org/1999/02/22-rdf-syntax-ns#">
   <cc:Work>
    <dc:type rdf:resource="http://purl.org/dc/dcmitype/StillImage"/>
    <dc:date>2026-09-18T22:23:10.105565</dc:date>
    <dc:format>image/svg+xml</dc:format>
    <dc:creator>
     <cc:Agent>
      <dc:title>Matplotlib v3.10.8, https://matplotlib.org/</dc:title>
     </cc:Agent>
    </dc:creator>
   </cc:Work>
  </rdf:RDF>
 </metadata>
 <defs>
  <style type="text/css">*{stroke-linejoin: round; stroke-linecap: butt}</style>
 </defs>
 <g id="figure_1">
  <g id="patch_1">
   <path d="M 0 342
L 1166.4 342
L 1166.4 0
L 0 0
z
" style="fill: #ffffff"/>
  </g>
  <g id="axes_1">
   <g id="patch_2">
    <path d="M 87.48 225.72
L 1157.0688 225.72
L 1157.0688 34.2
L 87.48 34.2
z
" style="fill: #ffffff"/>
   </g>
   <g id="matplotlib.axis_1">
    <g id="xtick_1">
     <g id="line2d_1"/>
     <g id="text_1">
      <text style="font-size: 15.5px; font-family: 'Liberation Sans'; text-anchor: end" x="124.409316" y="239.447766" transform="rotate(-30 124.409316 239.447766)">ctrl</text>
     </g>
    </g>
    <g id="xtick_2">
     <g id="line2d_2"/>
     <g id="text_2">
      <text style="font-size: 15.5px; font-family: 'Liberation Sans'; text-anchor: end" x="162.14868" y="239.447766" transform="rotate(-30 162.14868 239.447766)">router</text>
     </g>
    </g>
    <g id="xtick_3">
     <g id="line2d_3"/>
     <g id="text_3">
      <text style="font-size: 15.5px; font-family: 'Liberation Sans'; text-anchor: end" x="199.888044" y="239.447766" transform="rotate(-30 199.888044 239.447766)">c432</text>
     </g>
    </g>
    <g id="xtick_4">
     <g id="line2d_4"/>
     <g id="text_4">
      <text style="font-size: 15.5px; font-family: 'Liberation Sans'; text-anchor: end" x="237.627408" y="239.447766" transform="rotate(-30 237.627408 239.447766)">int2float</text>
     </g>
    </g>
    <g id="xtick_5">
     <g id="line2d_5"/>
     <g id="text_5">
      <text style="font-size: 15.5px; font-family: 'Liberation Sans'; text-anchor: end" x="275.366771" y="239.447766" transform="rotate(-30 275.366771 239.447766)">c880</text>
     </g>
    </g>
    <g id="xtick_6">
     <g id="line2d_6"/>
     <g id="text_6">
      <text style="font-size: 15.5px; font-family: 'Liberation Sans'; text-anchor: end" x="313.106135" y="239.447766" transform="rotate(-30 313.106135 239.447766)">c1908</text>
     </g>
    </g>
    <g id="xtick_7">
     <g id="line2d_7"/>
     <g id="text_7">
      <text style="font-size: 15.5px; font-family: 'Liberation Sans'; text-anchor: end" x="350.845499" y="239.447766" transform="rotate(-30 350.845499 239.447766)">c2670</text>
     </g>
    </g>
    <g id="xtick_8">
     <g id="line2d_8"/>
     <g id="text_8">
      <text style="font-size: 15.5px; font-family: 'Liberation Sans'; text-anchor: end" x="388.584863" y="239.447766" transform="rotate(-30 388.584863 239.447766)">c499</text>
     </g>
    </g>
    <g id="xtick_9">
     <g id="line2d_9"/>
     <g id="text_9">
      <text style="font-size: 15.5px; font-family: 'Liberation Sans'; text-anchor: end" x="426.324227" y="239.447766" transform="rotate(-30 426.324227 239.447766)">dec</text>
     </g>
    </g>
    <g id="xtick_10">
     <g id="line2d_10"/>
     <g id="text_10">
      <text style="font-size: 15.5px; font-family: 'Liberation Sans'; text-anchor: end" x="464.063591" y="239.447766" transform="rotate(-30 464.063591 239.447766)">priority</text>
     </g>
    </g>
    <g id="xtick_11">
     <g id="line2d_11"/>
     <g id="text_11">
      <text style="font-size: 15.5px; font-family: 'Liberation Sans'; text-anchor: end" x="501.802955" y="239.447766" transform="rotate(-30 501.802955 239.447766)">cavlc</text>
     </g>
    </g>
    <g id="xtick_12">
     <g id="line2d_12"/>
     <g id="text_12">
      <text style="font-size: 15.5px; font-family: 'Liberation Sans'; text-anchor: end" x="539.542318" y="239.447766" transform="rotate(-30 539.542318 239.447766)">c3540</text>
     </g>
    </g>
    <g id="xtick_13">
     <g id="line2d_13"/>
     <g id="text_13">
      <text style="font-size: 15.5px; font-family: 'Liberation Sans'; text-anchor: end" x="577.281682" y="239.447766" transform="rotate(-30 577.281682 239.447766)">i2c</text>
     </g>
    </g>
    <g id="xtick_14">
     <g id="line2d_14"/>
     <g id="text_14">
      <text style="font-size: 15.5px; font-family: 'Liberation Sans'; text-anchor: end" x="615.021046" y="239.447766" transform="rotate(-30 615.021046 239.447766)">c5315</text>
     </g>
    </g>
    <g id="xtick_15">
     <g id="line2d_15"/>
     <g id="text_15">
      <text style="font-size: 15.5px; font-family: 'Liberation Sans'; text-anchor: end" x="652.76041" y="239.447766" transform="rotate(-30 652.76041 239.447766)">bar</text>
     </g>
    </g>
    <g id="xtick_16">
     <g id="line2d_16"/>
     <g id="text_16">
      <text style="font-size: 15.5px; font-family: 'Liberation Sans'; text-anchor: end" x="690.499774" y="239.447766" transform="rotate(-30 690.499774 239.447766)">c6288</text>
     </g>
    </g>
    <g id="xtick_17">
     <g id="line2d_17"/>
     <g id="text_17">
      <text style="font-size: 15.5px; font-family: 'Liberation Sans'; text-anchor: end" x="728.239138" y="239.447766" transform="rotate(-30 728.239138 239.447766)">max</text>
     </g>
    </g>
    <g id="xtick_18">
     <g id="line2d_18"/>
     <g id="text_18">
      <text style="font-size: 15.5px; font-family: 'Liberation Sans'; text-anchor: end" x="765.978502" y="239.447766" transform="rotate(-30 765.978502 239.447766)">adder</text>
     </g>
    </g>
    <g id="xtick_19">
     <g id="line2d_19"/>
     <g id="text_19">
      <text style="font-size: 15.5px; font-family: 'Liberation Sans'; text-anchor: end" x="803.717865" y="239.447766" transform="rotate(-30 803.717865 239.447766)">arbiter</text>
     </g>
    </g>
    <g id="xtick_20">
     <g id="line2d_20"/>
     <g id="text_20">
      <text style="font-size: 15.5px; font-family: 'Liberation Sans'; text-anchor: end" x="841.457229" y="239.447766" transform="rotate(-30 841.457229 239.447766)">sin</text>
     </g>
    </g>
    <g id="xtick_21">
     <g id="line2d_21"/>
     <g id="text_21">
      <text style="font-size: 15.5px; font-family: 'Liberation Sans'; text-anchor: end" x="879.196593" y="239.447766" transform="rotate(-30 879.196593 239.447766)">voter</text>
     </g>
    </g>
    <g id="xtick_22">
     <g id="line2d_22"/>
     <g id="text_22">
      <text style="font-size: 15.5px; font-family: 'Liberation Sans'; text-anchor: end" x="916.935957" y="239.447766" transform="rotate(-30 916.935957 239.447766)">sqrt</text>
     </g>
    </g>
    <g id="xtick_23">
     <g id="line2d_23"/>
     <g id="text_23">
      <text style="font-size: 15.5px; font-family: 'Liberation Sans'; text-anchor: end" x="954.675321" y="239.447766" transform="rotate(-30 954.675321 239.447766)">square</text>
     </g>
    </g>
    <g id="xtick_24">
     <g id="line2d_24"/>
     <g id="text_24">
      <text style="font-size: 15.5px; font-family: 'Liberation Sans'; text-anchor: end" x="992.414685" y="239.447766" transform="rotate(-30 992.414685 239.447766)">mem_ctrl</text>
     </g>
    </g>
    <g id="xtick_25">
     <g id="line2d_25"/>
     <g id="text_25">
      <text style="font-size: 15.5px; font-family: 'Liberation Sans'; text-anchor: end" x="1030.154049" y="239.447766" transform="rotate(-30 1030.154049 239.447766)">multiplier</text>
     </g>
    </g>
    <g id="xtick_26">
     <g id="line2d_26"/>
     <g id="text_26">
      <text style="font-size: 15.5px; font-family: 'Liberation Sans'; text-anchor: end" x="1067.893412" y="239.447766" transform="rotate(-30 1067.893412 239.447766)">log2</text>
     </g>
    </g>
    <g id="xtick_27">
     <g id="line2d_27"/>
     <g id="text_27">
      <text style="font-size: 15.5px; font-family: 'Liberation Sans'; text-anchor: end" x="1105.632776" y="239.447766" transform="rotate(-30 1105.632776 239.447766)">div</text>
     </g>
    </g>
    <g id="xtick_28">
     <g id="line2d_28"/>
     <g id="text_28">
      <text style="font-size: 15.5px; font-family: 'Liberation Sans'; text-anchor: end" x="1143.37214" y="239.447766" transform="rotate(-30 1143.37214 239.447766)">hyp</text>
     </g>
    </g>
   </g>
   <g id="matplotlib.axis_2">
    <g id="ytick_1">
     <g id="line2d_29">
      <path d="M 87.48 225.72
L 1157.0688 225.72
" clip-path="url(#pdd8813ba9d)" style="fill: none; stroke-dasharray: 2.405,1.04; stroke-dashoffset: 0; stroke: #d9dde3; stroke-width: 0.65"/>
     </g>
     <g id="line2d_30">
      <defs>
       <path id="m2ea0d332e3" d="M 0 0
L -3.5 0
" style="stroke: #646a73; stroke-width: 0.7"/>
      </defs>
      <g>
       <use xlink:href="#m2ea0d332e3" x="87.48" y="225.72" style="fill: #646a73; stroke: #646a73; stroke-width: 0.7"/>
      </g>
     </g>
     <g id="text_29">
      <text style="font-size: 14px; font-family: 'Liberation Sans'; text-anchor: end" x="80.48" y="230.792813" transform="rotate(-0 80.48 230.792813)">0.5</text>
     </g>
    </g>
    <g id="ytick_2">
     <g id="line2d_31">
      <path d="M 87.48 196.701818
L 1157.0688 196.701818
" clip-path="url(#pdd8813ba9d)" style="fill: none; stroke-dasharray: 2.405,1.04; stroke-dashoffset: 0; stroke: #d9dde3; stroke-width: 0.65"/>
     </g>
     <g id="line2d_32">
      <g>
       <use xlink:href="#m2ea0d332e3" x="87.48" y="196.701818" style="fill: #646a73; stroke: #646a73; stroke-width: 0.7"/>
      </g>
     </g>
     <g id="text_30">
      <text style="font-size: 14px; font-family: 'Liberation Sans'; text-anchor: end" x="80.48" y="201.774631" transform="rotate(-0 80.48 201.774631)">0.6</text>
     </g>
    </g>
    <g id="ytick_3">
     <g id="line2d_33">
      <path d="M 87.48 167.683636
L 1157.0688 167.683636
" clip-path="url(#pdd8813ba9d)" style="fill: none; stroke-dasharray: 2.405,1.04; stroke-dashoffset: 0; stroke: #d9dde3; stroke-width: 0.65"/>
     </g>
     <g id="line2d_34">
      <g>
       <use xlink:href="#m2ea0d332e3" x="87.48" y="167.683636" style="fill: #646a73; stroke: #646a73; stroke-width: 0.7"/>
      </g>
     </g>
     <g id="text_31">
      <text style="font-size: 14px; font-family: 'Liberation Sans'; text-anchor: end" x="80.48" y="172.756449" transform="rotate(-0 80.48 172.756449)">0.7</text>
     </g>
    </g>
    <g id="ytick_4">
     <g id="line2d_35">
      <path d="M 87.48 138.665455
L 1157.0688 138.665455
" clip-path="url(#pdd8813ba9d)" style="fill: none; stroke-dasharray: 2.405,1.04; stroke-dashoffset: 0; stroke: #d9dde3; stroke-width: 0.65"/>
     </g>
     <g id="line2d_36">
      <g>
       <use xlink:href="#m2ea0d332e3" x="87.48" y="138.665455" style="fill: #646a73; stroke: #646a73; stroke-width: 0.7"/>
      </g>
     </g>
     <g id="text_32">
      <text style="font-size: 14px; font-family: 'Liberation Sans'; text-anchor: end" x="80.48" y="143.738267" transform="rotate(-0 80.48 143.738267)">0.8</text>
     </g>
    </g>
    <g id="ytick_5">
     <g id="line2d_37">
      <path d="M 87.48 109.647273
L 1157.0688 109.647273
" clip-path="url(#pdd8813ba9d)" style="fill: none; stroke-dasharray: 2.405,1.04; stroke-dashoffset: 0; stroke: #d9dde3; stroke-width: 0.65"/>
     </g>
     <g id="line2d_38">
      <g>
       <use xlink:href="#m2ea0d332e3" x="87.48" y="109.647273" style="fill: #646a73; stroke: #646a73; stroke-width: 0.7"/>
      </g>
     </g>
     <g id="text_33">
      <text style="font-size: 14px; font-family: 'Liberation Sans'; text-anchor: end" x="80.48" y="114.720085" transform="rotate(-0 80.48 114.720085)">0.9</text>
     </g>
    </g>
    <g id="ytick_6">
     <g id="line2d_39">
      <path d="M 87.48 80.629091
L 1157.0688 80.629091
" clip-path="url(#pdd8813ba9d)" style="fill: none; stroke-dasharray: 2.405,1.04; stroke-dashoffset: 0; stroke: #d9dde3; stroke-width: 0.65"/>
     </g>
     <g id="line2d_40">
      <g>
       <use xlink:href="#m2ea0d332e3" x="87.48" y="80.629091" style="fill: #646a73; stroke: #646a73; stroke-width: 0.7"/>
      </g>
     </g>
     <g id="text_34">
      <text style="font-size: 14px; font-family: 'Liberation Sans'; text-anchor: end" x="80.48" y="85.701903" transform="rotate(-0 80.48 85.701903)">1.0</text>
     </g>
    </g>
    <g id="ytick_7">
     <g id="line2d_41">
      <path d="M 87.48 51.610909
L 1157.0688 51.610909
" clip-path="url(#pdd8813ba9d)" style="fill: none; stroke-dasharray: 2.405,1.04; stroke-dashoffset: 0; stroke: #d9dde3; stroke-width: 0.65"/>
     </g>
     <g id="line2d_42">
      <g>
       <use xlink:href="#m2ea0d332e3" x="87.48" y="51.610909" style="fill: #646a73; stroke: #646a73; stroke-width: 0.7"/>
      </g>
     </g>
     <g id="text_35">
      <text style="font-size: 14px; font-family: 'Liberation Sans'; text-anchor: end" x="80.48" y="56.683722" transform="rotate(-0 80.48 56.683722)">1.1</text>
     </g>
    </g>
    <g id="text_36">
     <!-- Full $D^2AP$ / ablated $D^2AP$ -->
     <g transform="translate(53.7 221.88) rotate(-90)">
      <text>
       <tspan x="0" y="-0.5625" style="font-size: 16px; font-family: 'Liberation Sans'">F</tspan>
       <tspan x="9.773438" y="-0.5625" style="font-size: 16px; font-family: 'Liberation Sans'">u</tspan>
       <tspan x="18.671875" y="-0.5625" style="font-size: 16px; font-family: 'Liberation Sans'">l</tspan>
       <tspan x="22.226562" y="-0.5625" style="font-size: 16px; font-family: 'Liberation Sans'">l</tspan>
       <tspan x="25.78125" y="-0.5625" style="font-size: 16px; font-family: 'Liberation Sans'"> </tspan>
       <tspan x="71.827552" y="-0.5625" style="font-size: 16px; font-family: 'Liberation Sans'"> </tspan>
       <tspan x="76.272865" y="-0.5625" style="font-size: 16px; font-family: 'Liberation Sans'">/</tspan>
       <tspan x="80.718177" y="-0.5625" style="font-size: 16px; font-family: 'Liberation Sans'"> </tspan>
       <tspan x="85.16349" y="-0.5625" style="font-size: 16px; font-family: 'Liberation Sans'">a</tspan>
       <tspan x="94.061927" y="-0.5625" style="font-size: 16px; font-family: 'Liberation Sans'">b</tspan>
       <tspan x="102.960365" y="-0.5625" style="font-size: 16px; font-family: 'Liberation Sans'">l</tspan>
       <tspan x="106.515052" y="-0.5625" style="font-size: 16px; font-family: 'Liberation Sans'">a</tspan>
       <tspan x="115.41349" y="-0.5625" style="font-size: 16px; font-family: 'Liberation Sans'">t</tspan>
       <tspan x="119.858802" y="-0.5625" style="font-size: 16px; font-family: 'Liberation Sans'">e</tspan>
       <tspan x="128.75724" y="-0.5625" style="font-size: 16px; font-family: 'Liberation Sans'">d</tspan>
       <tspan x="137.655677" y="-0.5625" style="font-size: 16px; font-family: 'Liberation Sans'"> </tspan>
       <tspan x="30.226562" y="-0.5625" style="font-style: oblique; font-size: 16px; font-family: 'DejaVu Sans'">D</tspan>
       <tspan x="51.233802" y="-0.5625" style="font-style: oblique; font-size: 16px; font-family: 'DejaVu Sans'">A</tspan>
       <tspan x="62.179115" y="-0.5625" style="font-style: oblique; font-size: 16px; font-family: 'DejaVu Sans'">P</tspan>
       <tspan x="142.10099" y="-0.5625" style="font-style: oblique; font-size: 16px; font-family: 'DejaVu Sans'">D</tspan>
       <tspan x="163.108229" y="-0.5625" style="font-style: oblique; font-size: 16px; font-family: 'DejaVu Sans'">A</tspan>
       <tspan x="174.053542" y="-0.5625" style="font-style: oblique; font-size: 16px; font-family: 'DejaVu Sans'">P</tspan>
       <tspan x="43.670521" y="-6.6875" style="font-size: 11.2px; font-family: 'DejaVu Sans'">2</tspan>
       <tspan x="155.544948" y="-6.6875" style="font-size: 11.2px; font-family: 'DejaVu Sans'">2</tspan>
      </text>
     </g>
    </g>
   </g>
   <g id="patch_3">
    <path d="M 87.48 225.72
L 87.48 34.2
" style="fill: none; stroke: #646a73; stroke-width: 0.8; stroke-linejoin: miter; stroke-linecap: square"/>
   </g>
   <g id="patch_4">
    <path d="M 87.48 225.72
L 1157.0688 225.72
" style="fill: none; stroke: #646a73; stroke-width: 0.8; stroke-linejoin: miter; stroke-linecap: square"/>
   </g>
   <g id="patch_5">
    <path d="M 98.295549 370.810909
L 107.960508 370.810909
L 107.960508 152.208867
L 98.295549 152.208867
z
" clip-path="url(#pdd8813ba9d)" style="fill: #7cc9f0; stroke: #4178a0; stroke-width: 0.72; stroke-linejoin: miter"/>
   </g>
   <g id="patch_6">
    <path d="M 136.034913 370.810909
L 145.699872 370.810909
L 145.699872 80.629091
L 136.034913 80.629091
z
" clip-path="url(#pdd8813ba9d)" style="fill: #7cc9f0; stroke: #4178a0; stroke-width: 0.72; stroke-linejoin: miter"/>
   </g>
   <g id="patch_7">
    <path d="M 173.774277 370.810909
L 183.439236 370.810909
L 183.439236 98.820921
L 173.774277 98.820921
z
" clip-path="url(#pdd8813ba9d)" style="fill: #7cc9f0; stroke: #4178a0; stroke-width: 0.72; stroke-linejoin: miter"/>
   </g>
   <g id="patch_8">
    <path d="M 211.513641 370.810909
L 221.1786 370.810909
L 221.1786 171.950943
L 211.513641 171.950943
z
" clip-path="url(#pdd8813ba9d)" style="fill: #7cc9f0; stroke: #4178a0; stroke-width: 0.72; stroke-linejoin: miter"/>
   </g>
   <g id="patch_9">
    <path d="M 249.253005 370.810909
L 258.917964 370.810909
L 258.917964 89.532709
L 249.253005 89.532709
z
" clip-path="url(#pdd8813ba9d)" style="fill: #7cc9f0; stroke: #4178a0; stroke-width: 0.72; stroke-linejoin: miter"/>
   </g>
   <g id="patch_10">
    <path d="M 286.992369 370.810909
L 296.657328 370.810909
L 296.657328 80.629091
L 286.992369 80.629091
z
" clip-path="url(#pdd8813ba9d)" style="fill: #7cc9f0; stroke: #4178a0; stroke-width: 0.72; stroke-linejoin: miter"/>
   </g>
   <g id="patch_11">
    <path d="M 324.731733 370.810909
L 334.396692 370.810909
L 334.396692 164.343707
L 324.731733 164.343707
z
" clip-path="url(#pdd8813ba9d)" style="fill: #7cc9f0; stroke: #4178a0; stroke-width: 0.72; stroke-linejoin: miter"/>
   </g>
   <g id="patch_12">
    <path d="M 362.471096 370.810909
L 372.136055 370.810909
L 372.136055 80.629091
L 362.471096 80.629091
z
" clip-path="url(#pdd8813ba9d)" style="fill: #7cc9f0; stroke: #4178a0; stroke-width: 0.72; stroke-linejoin: miter"/>
   </g>
   <g id="patch_13">
    <path d="M 400.21046 370.810909
L 409.875419 370.810909
L 409.875419 188.903774
L 400.21046 188.903774
z
" clip-path="url(#pdd8813ba9d)" style="fill: #7cc9f0; stroke: #4178a0; stroke-width: 0.72; stroke-linejoin: miter"/>
   </g>
   <g id="patch_14">
    <path d="M 437.949824 370.810909
L 447.614783 370.810909
L 447.614783 119.793798
L 437.949824 119.793798
z
" clip-path="url(#pdd8813ba9d)" style="fill: #7cc9f0; stroke: #4178a0; stroke-width: 0.72; stroke-linejoin: miter"/>
   </g>
   <g id="patch_15">
    <path d="M 475.689188 370.810909
L 485.354147 370.810909
L 485.354147 148.173241
L 475.689188 148.173241
z
" clip-path="url(#pdd8813ba9d)" style="fill: #7cc9f0; stroke: #4178a0; stroke-width: 0.72; stroke-linejoin: miter"/>
   </g>
   <g id="patch_16">
    <path d="M 513.428552 370.810909
L 523.093511 370.810909
L 523.093511 115.662512
L 513.428552 115.662512
z
" clip-path="url(#pdd8813ba9d)" style="fill: #7cc9f0; stroke: #4178a0; stroke-width: 0.72; stroke-linejoin: miter"/>
   </g>
   <g id="patch_17">
    <path d="M 551.167916 370.810909
L 560.832875 370.810909
L 560.832875 167.455994
L 551.167916 167.455994
z
" clip-path="url(#pdd8813ba9d)" style="fill: #7cc9f0; stroke: #4178a0; stroke-width: 0.72; stroke-linejoin: miter"/>
   </g>
   <g id="patch_18">
    <path d="M 588.90728 370.810909
L 598.572239 370.810909
L 598.572239 172.513671
L 588.90728 172.513671
z
" clip-path="url(#pdd8813ba9d)" style="fill: #7cc9f0; stroke: #4178a0; stroke-width: 0.72; stroke-linejoin: miter"/>
   </g>
   <g id="patch_19">
    <path d="M 626.646643 370.810909
L 636.311602 370.810909
L 636.311602 174.893418
L 626.646643 174.893418
z
" clip-path="url(#pdd8813ba9d)" style="fill: #7cc9f0; stroke: #4178a0; stroke-width: 0.72; stroke-linejoin: miter"/>
   </g>
   <g id="patch_20">
    <path d="M 664.386007 370.810909
L 674.050966 370.810909
L 674.050966 88.214688
L 664.386007 88.214688
z
" clip-path="url(#pdd8813ba9d)" style="fill: #7cc9f0; stroke: #4178a0; stroke-width: 0.72; stroke-linejoin: miter"/>
   </g>
   <g id="patch_21">
    <path d="M 702.125371 370.810909
L 711.79033 370.810909
L 711.79033 119.429438
L 702.125371 119.429438
z
" clip-path="url(#pdd8813ba9d)" style="fill: #7cc9f0; stroke: #4178a0; stroke-width: 0.72; stroke-linejoin: miter"/>
   </g>
   <g id="patch_22">
    <path d="M 739.864735 370.810909
L 749.529694 370.810909
L 749.529694 124.737957
L 739.864735 124.737957
z
" clip-path="url(#pdd8813ba9d)" style="fill: #7cc9f0; stroke: #4178a0; stroke-width: 0.72; stroke-linejoin: miter"/>
   </g>
   <g id="patch_23">
    <path d="M 777.604099 370.810909
L 787.269058 370.810909
L 787.269058 104.308623
L 777.604099 104.308623
z
" clip-path="url(#pdd8813ba9d)" style="fill: #7cc9f0; stroke: #4178a0; stroke-width: 0.72; stroke-linejoin: miter"/>
   </g>
   <g id="patch_24">
    <path d="M 815.343463 370.810909
L 825.008422 370.810909
L 825.008422 80.629091
L 815.343463 80.629091
z
" clip-path="url(#pdd8813ba9d)" style="fill: #7cc9f0; stroke: #4178a0; stroke-width: 0.72; stroke-linejoin: miter"/>
   </g>
   <g id="patch_25">
    <path d="M 853.082827 370.810909
L 862.747786 370.810909
L 862.747786 88.839056
L 853.082827 88.839056
z
" clip-path="url(#pdd8813ba9d)" style="fill: #7cc9f0; stroke: #4178a0; stroke-width: 0.72; stroke-linejoin: miter"/>
   </g>
   <g id="patch_26">
    <path d="M 890.82219 370.810909
L 900.487149 370.810909
L 900.487149 95.731283
L 890.82219 95.731283
z
" clip-path="url(#pdd8813ba9d)" style="fill: #7cc9f0; stroke: #4178a0; stroke-width: 0.72; stroke-linejoin: miter"/>
   </g>
   <g id="patch_27">
    <path d="M 928.561554 370.810909
L 938.226513 370.810909
L 938.226513 80.629091
L 928.561554 80.629091
z
" clip-path="url(#pdd8813ba9d)" style="fill: #7cc9f0; stroke: #4178a0; stroke-width: 0.72; stroke-linejoin: miter"/>
   </g>
   <g id="patch_28">
    <path d="M 966.300918 370.810909
L 975.965877 370.810909
L 975.965877 156.22886
L 966.300918 156.22886
z
" clip-path="url(#pdd8813ba9d)" style="fill: #7cc9f0; stroke: #4178a0; stroke-width: 0.72; stroke-linejoin: miter"/>
   </g>
   <g id="patch_29">
    <path d="M 1004.040282 370.810909
L 1013.705241 370.810909
L 1013.705241 80.629091
L 1004.040282 80.629091
z
" clip-path="url(#pdd8813ba9d)" style="fill: #7cc9f0; stroke: #4178a0; stroke-width: 0.72; stroke-linejoin: miter"/>
   </g>
   <g id="patch_30">
    <path d="M 1041.779646 370.810909
L 1051.444605 370.810909
L 1051.444605 80.629091
L 1041.779646 80.629091
z
" clip-path="url(#pdd8813ba9d)" style="fill: #7cc9f0; stroke: #4178a0; stroke-width: 0.72; stroke-linejoin: miter"/>
   </g>
   <g id="patch_31">
    <path d="M 1079.51901 370.810909
L 1089.183969 370.810909
L 1089.183969 94.627669
L 1079.51901 94.627669
z
" clip-path="url(#pdd8813ba9d)" style="fill: #7cc9f0; stroke: #4178a0; stroke-width: 0.72; stroke-linejoin: miter"/>
   </g>
   <g id="patch_32">
    <path d="M 1117.258373 370.810909
L 1126.923333 370.810909
L 1126.923333 80.629091
L 1117.258373 80.629091
z
" clip-path="url(#pdd8813ba9d)" style="fill: #7cc9f0; stroke: #4178a0; stroke-width: 0.72; stroke-linejoin: miter"/>
   </g>
   <g id="patch_33">
    <path d="M 107.960508 370.810909
L 117.625467 370.810909
L 117.625467 153.280716
L 107.960508 153.280716
z
" clip-path="url(#pdd8813ba9d)" style="fill: #ffb870; stroke: #aa7846; stroke-width: 0.72; stroke-linejoin: miter"/>
   </g>
   <g id="patch_34">
    <path d="M 145.699872 370.810909
L 155.364831 370.810909
L 155.364831 107.93547
L 145.699872 107.93547
z
" clip-path="url(#pdd8813ba9d)" style="fill: #ffb870; stroke: #aa7846; stroke-width: 0.72; stroke-linejoin: miter"/>
   </g>
   <g id="patch_35">
    <path d="M 183.439236 370.810909
L 193.104195 370.810909
L 193.104195 97.273955
L 183.439236 97.273955
z
" clip-path="url(#pdd8813ba9d)" style="fill: #ffb870; stroke: #aa7846; stroke-width: 0.72; stroke-linejoin: miter"/>
   </g>
   <g id="patch_36">
    <path d="M 221.1786 370.810909
L 230.843559 370.810909
L 230.843559 97.375776
L 221.1786 97.375776
z
" clip-path="url(#pdd8813ba9d)" style="fill: #ffb870; stroke: #aa7846; stroke-width: 0.72; stroke-linejoin: miter"/>
   </g>
   <g id="patch_37">
    <path d="M 258.917964 370.810909
L 268.582923 370.810909
L 268.582923 85.537443
L 258.917964 85.537443
z
" clip-path="url(#pdd8813ba9d)" style="fill: #ffb870; stroke: #aa7846; stroke-width: 0.72; stroke-linejoin: miter"/>
   </g>
   <g id="patch_38">
    <path d="M 296.657328 370.810909
L 306.322287 370.810909
L 306.322287 90.435962
L 296.657328 90.435962
z
" clip-path="url(#pdd8813ba9d)" style="fill: #ffb870; stroke: #aa7846; stroke-width: 0.72; stroke-linejoin: miter"/>
   </g>
   <g id="patch_39">
    <path d="M 334.396692 370.810909
L 344.061651 370.810909
L 344.061651 121.166647
L 334.396692 121.166647
z
" clip-path="url(#pdd8813ba9d)" style="fill: #ffb870; stroke: #aa7846; stroke-width: 0.72; stroke-linejoin: miter"/>
   </g>
   <g id="patch_40">
    <path d="M 372.136055 370.810909
L 381.801014 370.810909
L 381.801014 96.06244
L 372.136055 96.06244
z
" clip-path="url(#pdd8813ba9d)" style="fill: #ffb870; stroke: #aa7846; stroke-width: 0.72; stroke-linejoin: miter"/>
   </g>
   <g id="patch_41">
    <path d="M 409.875419 370.810909
L 419.540378 370.810909
L 419.540378 108.120396
L 409.875419 108.120396
z
" clip-path="url(#pdd8813ba9d)" style="fill: #ffb870; stroke: #aa7846; stroke-width: 0.72; stroke-linejoin: miter"/>
   </g>
   <g id="patch_42">
    <path d="M 447.614783 370.810909
L 457.279742 370.810909
L 457.279742 105.613482
L 447.614783 105.613482
z
" clip-path="url(#pdd8813ba9d)" style="fill: #ffb870; stroke: #aa7846; stroke-width: 0.72; stroke-linejoin: miter"/>
   </g>
   <g id="patch_43">
    <path d="M 485.354147 370.810909
L 495.019106 370.810909
L 495.019106 86.644293
L 485.354147 86.644293
z
" clip-path="url(#pdd8813ba9d)" style="fill: #ffb870; stroke: #aa7846; stroke-width: 0.72; stroke-linejoin: miter"/>
   </g>
   <g id="patch_44">
    <path d="M 523.093511 370.810909
L 532.75847 370.810909
L 532.75847 84.298245
L 523.093511 84.298245
z
" clip-path="url(#pdd8813ba9d)" style="fill: #ffb870; stroke: #aa7846; stroke-width: 0.72; stroke-linejoin: miter"/>
   </g>
   <g id="patch_45">
    <path d="M 560.832875 370.810909
L 570.497834 370.810909
L 570.497834 60.075289
L 560.832875 60.075289
z
" clip-path="url(#pdd8813ba9d)" style="fill: #ffb870; stroke: #aa7846; stroke-width: 0.72; stroke-linejoin: miter"/>
   </g>
   <g id="patch_46">
    <path d="M 598.572239 370.810909
L 608.237198 370.810909
L 608.237198 82.368629
L 598.572239 82.368629
z
" clip-path="url(#pdd8813ba9d)" style="fill: #ffb870; stroke: #aa7846; stroke-width: 0.72; stroke-linejoin: miter"/>
   </g>
   <g id="patch_47">
    <path d="M 636.311602 370.810909
L 645.976561 370.810909
L 645.976561 80.890394
L 636.311602 80.890394
z
" clip-path="url(#pdd8813ba9d)" style="fill: #ffb870; stroke: #aa7846; stroke-width: 0.72; stroke-linejoin: miter"/>
   </g>
   <g id="patch_48">
    <path d="M 674.050966 370.810909
L 683.715925 370.810909
L 683.715925 82.221268
L 674.050966 82.221268
z
" clip-path="url(#pdd8813ba9d)" style="fill: #ffb870; stroke: #aa7846; stroke-width: 0.72; stroke-linejoin: miter"/>
   </g>
   <g id="patch_49">
    <path d="M 711.79033 370.810909
L 721.455289 370.810909
L 721.455289 120.995642
L 711.79033 120.995642
z
" clip-path="url(#pdd8813ba9d)" style="fill: #ffb870; stroke: #aa7846; stroke-width: 0.72; stroke-linejoin: miter"/>
   </g>
   <g id="patch_50">
    <path d="M 749.529694 370.810909
L 759.194653 370.810909
L 759.194653 91.906082
L 749.529694 91.906082
z
" clip-path="url(#pdd8813ba9d)" style="fill: #ffb870; stroke: #aa7846; stroke-width: 0.72; stroke-linejoin: miter"/>
   </g>
   <g id="patch_51">
    <path d="M 787.269058 370.810909
L 796.934017 370.810909
L 796.934017 84.069578
L 787.269058 84.069578
z
" clip-path="url(#pdd8813ba9d)" style="fill: #ffb870; stroke: #aa7846; stroke-width: 0.72; stroke-linejoin: miter"/>
   </g>
   <g id="patch_52">
    <path d="M 825.008422 370.810909
L 834.673381 370.810909
L 834.673381 87.061277
L 825.008422 87.061277
z
" clip-path="url(#pdd8813ba9d)" style="fill: #ffb870; stroke: #aa7846; stroke-width: 0.72; stroke-linejoin: miter"/>
   </g>
   <g id="patch_53">
    <path d="M 862.747786 370.810909
L 872.412745 370.810909
L 872.412745 83.505194
L 862.747786 83.505194
z
" clip-path="url(#pdd8813ba9d)" style="fill: #ffb870; stroke: #aa7846; stroke-width: 0.72; stroke-linejoin: miter"/>
   </g>
   <g id="patch_54">
    <path d="M 900.487149 370.810909
L 910.152108 370.810909
L 910.152108 87.880081
L 900.487149 87.880081
z
" clip-path="url(#pdd8813ba9d)" style="fill: #ffb870; stroke: #aa7846; stroke-width: 0.72; stroke-linejoin: miter"/>
   </g>
   <g id="patch_55">
    <path d="M 938.226513 370.810909
L 947.891472 370.810909
L 947.891472 98.337884
L 938.226513 98.337884
z
" clip-path="url(#pdd8813ba9d)" style="fill: #ffb870; stroke: #aa7846; stroke-width: 0.72; stroke-linejoin: miter"/>
   </g>
   <g id="patch_56">
    <path d="M 975.965877 370.810909
L 985.630836 370.810909
L 985.630836 82.981376
L 975.965877 82.981376
z
" clip-path="url(#pdd8813ba9d)" style="fill: #ffb870; stroke: #aa7846; stroke-width: 0.72; stroke-linejoin: miter"/>
   </g>
   <g id="patch_57">
    <path d="M 1013.705241 370.810909
L 1023.3702 370.810909
L 1023.3702 90.448747
L 1013.705241 90.448747
z
" clip-path="url(#pdd8813ba9d)" style="fill: #ffb870; stroke: #aa7846; stroke-width: 0.72; stroke-linejoin: miter"/>
   </g>
   <g id="patch_58">
    <path d="M 1051.444605 370.810909
L 1061.109564 370.810909
L 1061.109564 81.688444
L 1051.444605 81.688444
z
" clip-path="url(#pdd8813ba9d)" style="fill: #ffb870; stroke: #aa7846; stroke-width: 0.72; stroke-linejoin: miter"/>
   </g>
   <g id="patch_59">
    <path d="M 1089.183969 370.810909
L 1098.848928 370.810909
L 1098.848928 84.024583
L 1089.183969 84.024583
z
" clip-path="url(#pdd8813ba9d)" style="fill: #ffb870; stroke: #aa7846; stroke-width: 0.72; stroke-linejoin: miter"/>
   </g>
   <g id="patch_60">
    <path d="M 1126.923333 370.810909
L 1136.588292 370.810909
L 1136.588292 80.581318
L 1126.923333 80.581318
z
" clip-path="url(#pdd8813ba9d)" style="fill: #ffb870; stroke: #aa7846; stroke-width: 0.72; stroke-linejoin: miter"/>
   </g>
   <g id="patch_61">
    <path d="M 117.625467 370.810909
L 127.290427 370.810909
L 127.290427 84.056385
L 117.625467 84.056385
z
" clip-path="url(#pdd8813ba9d)" style="fill: #8ed97b; stroke: #4b8c69; stroke-width: 0.72; stroke-linejoin: miter"/>
   </g>
   <g id="patch_62">
    <path d="M 155.364831 370.810909
L 165.02979 370.810909
L 165.02979 80.629091
L 155.364831 80.629091
z
" clip-path="url(#pdd8813ba9d)" style="fill: #8ed97b; stroke: #4b8c69; stroke-width: 0.72; stroke-linejoin: miter"/>
   </g>
   <g id="patch_63">
    <path d="M 193.104195 370.810909
L 202.769154 370.810909
L 202.769154 85.087911
L 193.104195 85.087911
z
" clip-path="url(#pdd8813ba9d)" style="fill: #8ed97b; stroke: #4b8c69; stroke-width: 0.72; stroke-linejoin: miter"/>
   </g>
   <g id="patch_64">
    <path d="M 230.843559 370.810909
L 240.508518 370.810909
L 240.508518 80.629091
L 230.843559 80.629091
z
" clip-path="url(#pdd8813ba9d)" style="fill: #8ed97b; stroke: #4b8c69; stroke-width: 0.72; stroke-linejoin: miter"/>
   </g>
   <g id="patch_65">
    <path d="M 268.582923 370.810909
L 278.247882 370.810909
L 278.247882 80.629091
L 268.582923 80.629091
z
" clip-path="url(#pdd8813ba9d)" style="fill: #8ed97b; stroke: #4b8c69; stroke-width: 0.72; stroke-linejoin: miter"/>
   </g>
   <g id="patch_66">
    <path d="M 306.322287 370.810909
L 315.987246 370.810909
L 315.987246 80.629091
L 306.322287 80.629091
z
" clip-path="url(#pdd8813ba9d)" style="fill: #8ed97b; stroke: #4b8c69; stroke-width: 0.72; stroke-linejoin: miter"/>
   </g>
   <g id="patch_67">
    <path d="M 344.061651 370.810909
L 353.72661 370.810909
L 353.72661 80.733412
L 344.061651 80.733412
z
" clip-path="url(#pdd8813ba9d)" style="fill: #8ed97b; stroke: #4b8c69; stroke-width: 0.72; stroke-linejoin: miter"/>
   </g>
   <g id="patch_68">
    <path d="M 381.801014 370.810909
L 391.465973 370.810909
L 391.465973 79.889913
L 381.801014 79.889913
z
" clip-path="url(#pdd8813ba9d)" style="fill: #8ed97b; stroke: #4b8c69; stroke-width: 0.72; stroke-linejoin: miter"/>
   </g>
   <g id="patch_69">
    <path d="M 419.540378 370.810909
L 429.205337 370.810909
L 429.205337 71.766149
L 419.540378 71.766149
z
" clip-path="url(#pdd8813ba9d)" style="fill: #8ed97b; stroke: #4b8c69; stroke-width: 0.72; stroke-linejoin: miter"/>
   </g>
   <g id="patch_70">
    <path d="M 457.279742 370.810909
L 466.944701 370.810909
L 466.944701 87.653726
L 457.279742 87.653726
z
" clip-path="url(#pdd8813ba9d)" style="fill: #8ed97b; stroke: #4b8c69; stroke-width: 0.72; stroke-linejoin: miter"/>
   </g>
   <g id="patch_71">
    <path d="M 495.019106 370.810909
L 504.684065 370.810909
L 504.684065 91.515009
L 495.019106 91.515009
z
" clip-path="url(#pdd8813ba9d)" style="fill: #8ed97b; stroke: #4b8c69; stroke-width: 0.72; stroke-linejoin: miter"/>
   </g>
   <g id="patch_72">
    <path d="M 532.75847 370.810909
L 542.423429 370.810909
L 542.423429 79.33319
L 532.75847 79.33319
z
" clip-path="url(#pdd8813ba9d)" style="fill: #8ed97b; stroke: #4b8c69; stroke-width: 0.72; stroke-linejoin: miter"/>
   </g>
   <g id="patch_73">
    <path d="M 570.497834 370.810909
L 580.162793 370.810909
L 580.162793 82.380661
L 570.497834 82.380661
z
" clip-path="url(#pdd8813ba9d)" style="fill: #8ed97b; stroke: #4b8c69; stroke-width: 0.72; stroke-linejoin: miter"/>
   </g>
   <g id="patch_74">
    <path d="M 608.237198 370.810909
L 617.902157 370.810909
L 617.902157 74.628897
L 608.237198 74.628897
z
" clip-path="url(#pdd8813ba9d)" style="fill: #8ed97b; stroke: #4b8c69; stroke-width: 0.72; stroke-linejoin: miter"/>
   </g>
   <g id="patch_75">
    <path d="M 645.976561 370.810909
L 655.64152 370.810909
L 655.64152 79.728863
L 645.976561 79.728863
z
" clip-path="url(#pdd8813ba9d)" style="fill: #8ed97b; stroke: #4b8c69; stroke-width: 0.72; stroke-linejoin: miter"/>
   </g>
   <g id="patch_76">
    <path d="M 683.715925 370.810909
L 693.380884 370.810909
L 693.380884 83.055612
L 683.715925 83.055612
z
" clip-path="url(#pdd8813ba9d)" style="fill: #8ed97b; stroke: #4b8c69; stroke-width: 0.72; stroke-linejoin: miter"/>
   </g>
   <g id="patch_77">
    <path d="M 721.455289 370.810909
L 731.120248 370.810909
L 731.120248 92.683099
L 721.455289 92.683099
z
" clip-path="url(#pdd8813ba9d)" style="fill: #8ed97b; stroke: #4b8c69; stroke-width: 0.72; stroke-linejoin: miter"/>
   </g>
   <g id="patch_78">
    <path d="M 759.194653 370.810909
L 768.859612 370.810909
L 768.859612 84.947383
L 759.194653 84.947383
z
" clip-path="url(#pdd8813ba9d)" style="fill: #8ed97b; stroke: #4b8c69; stroke-width: 0.72; stroke-linejoin: miter"/>
   </g>
   <g id="patch_79">
    <path d="M 796.934017 370.810909
L 806.598976 370.810909
L 806.598976 76.4851
L 796.934017 76.4851
z
" clip-path="url(#pdd8813ba9d)" style="fill: #8ed97b; stroke: #4b8c69; stroke-width: 0.72; stroke-linejoin: miter"/>
   </g>
   <g id="patch_80">
    <path d="M 834.673381 370.810909
L 844.33834 370.810909
L 844.33834 81.032821
L 834.673381 81.032821
z
" clip-path="url(#pdd8813ba9d)" style="fill: #8ed97b; stroke: #4b8c69; stroke-width: 0.72; stroke-linejoin: miter"/>
   </g>
   <g id="patch_81">
    <path d="M 872.412745 370.810909
L 882.077704 370.810909
L 882.077704 82.936831
L 872.412745 82.936831
z
" clip-path="url(#pdd8813ba9d)" style="fill: #8ed97b; stroke: #4b8c69; stroke-width: 0.72; stroke-linejoin: miter"/>
   </g>
   <g id="patch_82">
    <path d="M 910.152108 370.810909
L 919.817067 370.810909
L 919.817067 81.665992
L 910.152108 81.665992
z
" clip-path="url(#pdd8813ba9d)" style="fill: #8ed97b; stroke: #4b8c69; stroke-width: 0.72; stroke-linejoin: miter"/>
   </g>
   <g id="patch_83">
    <path d="M 947.891472 370.810909
L 957.556431 370.810909
L 957.556431 97.864361
L 947.891472 97.864361
z
" clip-path="url(#pdd8813ba9d)" style="fill: #8ed97b; stroke: #4b8c69; stroke-width: 0.72; stroke-linejoin: miter"/>
   </g>
   <g id="patch_84">
    <path d="M 985.630836 370.810909
L 995.295795 370.810909
L 995.295795 81.825118
L 985.630836 81.825118
z
" clip-path="url(#pdd8813ba9d)" style="fill: #8ed97b; stroke: #4b8c69; stroke-width: 0.72; stroke-linejoin: miter"/>
   </g>
   <g id="patch_85">
    <path d="M 1023.3702 370.810909
L 1033.035159 370.810909
L 1033.035159 89.376734
L 1023.3702 89.376734
z
" clip-path="url(#pdd8813ba9d)" style="fill: #8ed97b; stroke: #4b8c69; stroke-width: 0.72; stroke-linejoin: miter"/>
   </g>
   <g id="patch_86">
    <path d="M 1061.109564 370.810909
L 1070.774523 370.810909
L 1070.774523 80.629091
L 1061.109564 80.629091
z
" clip-path="url(#pdd8813ba9d)" style="fill: #8ed97b; stroke: #4b8c69; stroke-width: 0.72; stroke-linejoin: miter"/>
   </g>
   <g id="patch_87">
    <path d="M 1098.848928 370.810909
L 1108.513887 370.810909
L 1108.513887 80.718494
L 1098.848928 80.718494
z
" clip-path="url(#pdd8813ba9d)" style="fill: #8ed97b; stroke: #4b8c69; stroke-width: 0.72; stroke-linejoin: miter"/>
   </g>
   <g id="patch_88">
    <path d="M 1136.588292 370.810909
L 1146.253251 370.810909
L 1146.253251 80.627587
L 1136.588292 80.627587
z
" clip-path="url(#pdd8813ba9d)" style="fill: #8ed97b; stroke: #4b8c69; stroke-width: 0.72; stroke-linejoin: miter"/>
   </g>
   <g id="legend_1">
    <g id="patch_89">
     <path d="M 152.122916 69.978069
L 1092.425884 69.978069
Q 1096.125884 69.978069 1096.125884 66.278069
L 1096.125884 41.6326
Q 1096.125884 37.9326 1092.425884 37.9326
L 152.122916 37.9326
Q 148.422916 37.9326 148.422916 41.6326
L 148.422916 66.278069
Q 148.422916 69.978069 152.122916 69.978069
z
" style="fill: #ffffff; opacity: 0.92"/>
    </g>
    <g id="line2d_43">
     <path d="M 155.822916 52.264319
L 167.847916 52.264319
L 179.872916 52.264319
" style="fill: none; stroke-dasharray: 11.1,4.8; stroke-dashoffset: 0; stroke: #9a0000; stroke-width: 3"/>
    </g>
    <g id="text_37">
     <text style="font-size: 18.5px; font-family: 'Liberation Sans'; text-anchor: start" x="194.672916" y="58.739319" transform="rotate(-0 194.672916 58.739319)">Full E-SCOPE</text>
    </g>
    <g id="patch_90">
     <path d="M 336.940806 58.739319
L 360.990806 58.739319
L 360.990806 45.789319
L 336.940806 45.789319
z
" style="fill: #7cc9f0; stroke: #4178a0; stroke-width: 0.72; stroke-linejoin: miter"/>
    </g>
    <g id="text_38">
     <text style="font-size: 18.5px; font-family: 'Liberation Sans'; text-anchor: start" x="375.790806" y="58.739319" transform="rotate(-0 375.790806 58.739319)">Without Phase-II sizing</text>
    </g>
    <g id="patch_91">
     <path d="M 589.023541 58.739319
L 613.073541 58.739319
L 613.073541 45.789319
L 589.023541 45.789319
z
" style="fill: #ffb870; stroke: #aa7846; stroke-width: 0.72; stroke-linejoin: miter"/>
    </g>
    <g id="text_39">
     <text style="font-size: 18.5px; font-family: 'Liberation Sans'; text-anchor: start" x="627.873541" y="58.739319" transform="rotate(-0 627.873541 58.739319)">Without Phase-I exploration</text>
    </g>
    <g id="patch_92">
     <path d="M 879.167134 58.739319
L 903.217134 58.739319
L 903.217134 45.789319
L 879.167134 45.789319
z
" style="fill: #8ed97b; stroke: #4b8c69; stroke-width: 0.72; stroke-linejoin: miter"/>
    </g>
    <g id="text_40">
     <text style="font-size: 18.5px; font-family: 'Liberation Sans'; text-anchor: start" x="918.017134" y="58.739319" transform="rotate(-0 918.017134 58.739319)">Logic only in Phase I</text>
    </g>
   </g>
   <g id="line2d_44">
    <path d="M 87.48 80.629091
L 1157.0688 80.629091
" clip-path="url(#pdd8813ba9d)" style="fill: none; stroke-dasharray: 11.1,4.8; stroke-dashoffset: 0; stroke: #9a0000; stroke-width: 3"/>
   </g>
  </g>
 </g>
 <defs>
  <clipPath id="pdd8813ba9d">
   <rect x="87.48" y="34.2" width="1069.5888" height="191.52"/>
  </clipPath>
 </defs>
</svg>
